<?xml version="1.0" standalone="no"?><!DOCTYPE svg PUBLIC "-//W3C//DTD SVG 1.1//EN" "http://www.w3.org/Graphics/SVG/1.1/DTD/svg11.dtd"><svg t="1553435685502" class="icon" style="" viewBox="0 0 1024 1024" version="1.1" xmlns="http://www.w3.org/2000/svg" p-id="1389" xmlns:xlink="http://www.w3.org/1999/xlink" width="200" height="200"><defs><style type="text/css"></style></defs><path d="M286.9 428.2a216.4 254.5 0 1 0 432.8 0 216.4 254.5 0 1 0-432.8 0Z" fill="#D1D2D4" p-id="1390"></path><path d="M774.2 624.5H669.1c47.7-58.7 79.1-138.6 79.1-221 0-170.8-128-263-248.5-263-140.2 0-245.9 112.6-245.9 261.9 0 83.8 30.2 163.6 76.8 222.1H227.9c-72.1 0-130.7 58.6-130.7 130.7s58.6 130.7 130.7 130.7h546.3c72.1 0 130.7-58.6 130.7-130.7s-58.7-130.7-130.7-130.7zM303.7 402.4c0-137.8 101-212.1 196.1-212.1 96.3 0 198.7 74.7 198.7 213.3 0 133.5-98.4 264.5-198.7 264.5-99 0-196.1-131.6-196.1-265.7z m470.5 433.7H227.9c-44.6 0-80.9-36.3-80.9-80.9s36.3-80.9 80.9-80.9h153.3c35.9 27.4 76.6 43.6 118.6 43.6 41.3 0 81.8-16.4 117.8-43.6h156.6c44.6 0 80.9 36.3 80.9 80.9s-36.3 80.9-80.9 80.9z" fill="" p-id="1391"></path></svg>