<?xml version="1.0" standalone="no"?><!DOCTYPE svg PUBLIC "-//W3C//DTD SVG 1.1//EN" "http://www.w3.org/Graphics/SVG/1.1/DTD/svg11.dtd"><svg t="1553484925760" class="icon" style="" viewBox="0 0 1024 1024" version="1.1" xmlns="http://www.w3.org/2000/svg" p-id="8857" xmlns:xlink="http://www.w3.org/1999/xlink" width="200" height="200"><defs><style type="text/css"></style></defs><path d="M401.859 32c-97.464 0-194.93 0-290.705 0-43.38 0-78.31 34.929-78.31 78.31 0 95.775 0 193.239 0 290.705 0 43.38 34.929 78.31 78.31 78.31 97.464 0 194.93 0 290.705 0 43.38 0 78.31-34.929 78.31-78.31 0-97.464 0-194.93 0-290.705-1.69-43.38-35.493-78.31-78.31-78.31zM440.169 401.014c0 20.845-17.465 38.31-38.31 38.31h-290.705c-20.845 0-38.31-17.465-38.31-38.31v-290.705c0-20.845 17.465-38.31 38.31-38.31h290.705c20.845 0 38.31 17.465 38.31 38.31v290.705z" p-id="8858"></path><path d="M401.859 544.676c-97.464 0-194.93 0-290.705 0-43.38 0-78.31 34.929-78.31 78.31 0 95.775 0 193.239 0 289.014 0 43.38 34.929 78.31 78.31 78.31 97.464 0 194.93 0 290.705 0 43.38 0 78.31-34.929 78.31-78.31 0-97.464 0-194.93 0-290.705-1.69-43.38-35.493-76.62-78.31-76.62zM440.169 912c0 20.845-17.465 38.31-38.31 38.31h-290.705c-20.845 0-38.31-17.465-38.31-38.31v-290.705c0-20.845 17.465-38.31 38.31-38.31h290.705c20.845 0 38.31 17.465 38.31 38.31v290.705z" p-id="8859"></path><path d="M912.845 544.676c-97.464 0-194.93 0-290.705 0-43.38 0-78.31 34.929-78.31 78.31 0 97.464 0 194.93 0 290.705 0 43.38 34.929 78.31 78.31 78.31 97.464 0 194.93 0 290.705 0 43.38 0 78.31-34.929 78.31-78.31 0-97.464 0-194.93 0-290.705 0-45.070-35.493-78.31-78.31-78.31zM952.845 912c0 20.845-17.465 38.31-38.31 38.31h-292.394c-20.845 0-38.31-17.465-38.31-38.31v-290.705c0-20.845 17.465-38.31 38.31-38.31h290.705c20.845 0 38.31 17.465 38.31 38.31v290.705h1.69z" p-id="8860"></path><path d="M912.845 32c-95.775 0-193.239 0-290.705 0-43.38 0-78.31 34.929-78.31 78.31 0 97.464 0 194.93 0 290.705 0 43.38 34.929 78.31 78.31 78.31 97.464 0 194.93 0 290.705 0 43.38 0 78.31-34.929 78.31-78.31 0-97.464 0-194.93 0-290.705 0-43.38-35.493-78.31-78.31-78.31zM952.845 401.014c0 20.845-17.465 38.31-38.31 38.31h-292.394c-20.845 0-38.31-17.465-38.31-38.31v-290.705c0-20.845 17.465-38.31 38.31-38.31h290.705c20.845 0 38.31 17.465 38.31 38.31v290.705h1.69z" p-id="8861"></path></svg>